<?xml version="1.0" encoding="UTF-8" standalone="no"?>
<!DOCTYPE svg PUBLIC "-//W3C//DTD SVG 1.1//EN"
 "http://www.w3.org/Graphics/SVG/1.1/DTD/svg11.dtd">
<!-- Generated by graphviz version 16.1.0 (20260904.0139)
 -->
<!-- Title: actual_scheduled_cfg Pages: 1 -->
<svg width="341pt" height="231pt"
 viewBox="0.00 0.00 341.00 231.00" xmlns="http://www.w3.org/2000/svg" xmlns:xlink="http://www.w3.org/1999/xlink">
<g id="graph0" class="graph" transform="scale(1 1) rotate(0) translate(4 226.75)">
<title>actual_scheduled_cfg</title>
<polygon fill="white" stroke="none" points="-4,4 -4,-226.75 336.5,-226.75 336.5,4 -4,4"/>
<text xml:space="preserve" text-anchor="middle" x="166.25" y="-7.2" font-family="Times,serif" font-size="14.00">Induced scheduled CFG of continuing natural&#45;loop blocks</text>
<!-- b30 -->
<g id="node1" class="node">
<title>b30</title>
<polygon fill="none" stroke="black" points="235.75,-222.75 96.75,-222.75 96.75,-102.25 235.75,-102.25 235.75,-222.75"/>
<text xml:space="preserve" text-anchor="middle" x="166.25" y="-209.25" font-family="Helvetica,sans-Serif" font-size="10.00">B30</text>
<text xml:space="preserve" text-anchor="middle" x="166.25" y="-198" font-family="Helvetica,sans-Serif" font-size="10.00">1924: LoopBeginNode</text>
<text xml:space="preserve" text-anchor="middle" x="166.25" y="-186.75" font-family="Helvetica,sans-Serif" font-size="10.00">1931: IntegerLessThanNode</text>
<text xml:space="preserve" text-anchor="middle" x="166.25" y="-175.5" font-family="Helvetica,sans-Serif" font-size="10.00">1932: ConditionalNode</text>
<text xml:space="preserve" text-anchor="middle" x="166.25" y="-164.25" font-family="Helvetica,sans-Serif" font-size="10.00">1992: AddNode</text>
<text xml:space="preserve" text-anchor="middle" x="166.25" y="-153" font-family="Helvetica,sans-Serif" font-size="10.00">1993: AddNode</text>
<text xml:space="preserve" text-anchor="middle" x="166.25" y="-141.75" font-family="Helvetica,sans-Serif" font-size="10.00">1986: IfNode</text>
<text xml:space="preserve" text-anchor="middle" x="166.25" y="-130.5" font-family="Helvetica,sans-Serif" font-size="10.00">2057: ValuePhiNode</text>
<text xml:space="preserve" text-anchor="middle" x="166.25" y="-119.25" font-family="Helvetica,sans-Serif" font-size="10.00">2058: ValuePhiNode</text>
<text xml:space="preserve" text-anchor="middle" x="166.25" y="-108" font-family="Helvetica,sans-Serif" font-size="10.00">2059: ValuePhiNode</text>
</g>
<!-- b31 -->
<g id="node2" class="node">
<title>b31</title>
<polygon fill="none" stroke="black" points="218.5,-66.25 114,-66.25 114,-24.5 218.5,-24.5 218.5,-66.25"/>
<text xml:space="preserve" text-anchor="middle" x="166.25" y="-52.75" font-family="Helvetica,sans-Serif" font-size="10.00">B31</text>
<text xml:space="preserve" text-anchor="middle" x="166.25" y="-41.5" font-family="Helvetica,sans-Serif" font-size="10.00">1988: BeginNode</text>
<text xml:space="preserve" text-anchor="middle" x="166.25" y="-30.25" font-family="Helvetica,sans-Serif" font-size="10.00">2019: LoopEndNode</text>
</g>
<!-- b30&#45;&gt;b31 -->
<g id="edge1" class="edge">
<title>b30&#45;&gt;b31</title>
<path fill="none" stroke="black" d="M159.5,-101.91C159.53,-93.66 159.75,-85.46 160.15,-78"/>
<polygon fill="black" stroke="black" points="163.63,-78.35 160.86,-68.13 156.65,-77.85 163.63,-78.35"/>
</g>
<!-- b31&#45;&gt;b30 -->
<g id="edge2" class="edge">
<title>b31&#45;&gt;b30</title>
<path fill="none" stroke="black" d="M171.53,-66.62C172.19,-73.63 172.62,-81.94 172.84,-90.68"/>
<polygon fill="black" stroke="black" points="169.33,-90.45 172.97,-100.4 176.33,-90.35 169.33,-90.45"/>
</g>
</g>
</svg>
