<?xml version="1.0" encoding="UTF-8" standalone="no"?>
<!DOCTYPE svg PUBLIC "-//W3C//DTD SVG 1.1//EN"
 "http://www.w3.org/Graphics/SVG/1.1/DTD/svg11.dtd">
<!-- Generated by graphviz version 16.1.0 (20260904.0139)
 -->
<!-- Title: actual_cfg Pages: 1 -->
<svg width="552pt" height="775pt"
 viewBox="0.00 0.00 552.00 775.00" xmlns="http://www.w3.org/2000/svg" xmlns:xlink="http://www.w3.org/1999/xlink">
<g id="graph0" class="graph" transform="scale(1 1) rotate(0) translate(4 770.75)">
<title>actual_cfg</title>
<polygon fill="white" stroke="none" points="-4,4 -4,-770.75 548,-770.75 548,4 -4,4"/>
<text xml:space="preserve" text-anchor="middle" x="272" y="-749.45" font-family="Times,serif" font-size="14.00">new AST C: actual scheduled CFG before HighTierLowering</text>
<text xml:space="preserve" text-anchor="middle" x="272" y="-732.95" font-family="Times,serif" font-size="14.00">Debug state, constants and bookkeeping labels omitted; node IDs and block edges preserved</text>
<!-- B0 -->
<g id="node1" class="node">
<title>B0</title>
<polygon fill="#f4f5f7" stroke="black" points="397,-725.75 165,-725.75 165,-641.25 397,-641.25 397,-725.75"/>
<text xml:space="preserve" text-anchor="middle" x="281" y="-712.25" font-family="Menlo" font-size="10.00">B0</text>
<text xml:space="preserve" text-anchor="middle" x="281" y="-699.5" font-family="Menlo" font-size="10.00">0 StartNode void</text>
<text xml:space="preserve" text-anchor="middle" x="281" y="-686.75" font-family="Menlo" font-size="10.00">2 ParameterNode a java.lang.Object[]</text>
<text xml:space="preserve" text-anchor="middle" x="281" y="-674" font-family="Menlo" font-size="10.00">162 UnboxNode i64</text>
<text xml:space="preserve" text-anchor="middle" x="281" y="-661.25" font-family="Menlo" font-size="10.00">2242 UnboxNode i64</text>
<text xml:space="preserve" text-anchor="middle" x="281" y="-648.5" font-family="Menlo" font-size="10.00">2244 UnboxNode i64</text>
</g>
<!-- B1 -->
<g id="node2" class="node">
<title>B1</title>
<polygon fill="#def4e9" stroke="black" points="544,-605.25 18,-605.25 18,-393.25 544,-393.25 544,-605.25"/>
<text xml:space="preserve" text-anchor="middle" x="281" y="-591.75" font-family="Menlo" font-size="10.00">B1</text>
<text xml:space="preserve" text-anchor="middle" x="281" y="-579" font-family="Menlo" font-size="10.00">353 LoopBeginNode void</text>
<text xml:space="preserve" text-anchor="middle" x="281" y="-566.25" font-family="Menlo" font-size="10.00">567 IntegerLessThanNode void [x=1945, y=566:long[1|0x1]]</text>
<text xml:space="preserve" text-anchor="middle" x="281" y="-553.5" font-family="Menlo" font-size="10.00">1097 AddNode i64 [x=1945, y=1096:long[&#45;1|0xffffffffffffffff]]</text>
<text xml:space="preserve" text-anchor="middle" x="281" y="-540.75" font-family="Menlo" font-size="10.00">2031 IntegerLessThanNode void [x=1097, y=566:long[1|0x1]]</text>
<text xml:space="preserve" text-anchor="middle" x="281" y="-528" font-family="Menlo" font-size="10.00">2271 AddNode i64 [x=1945, y=2270:long[&#45;2|0xfffffffffffffffe]]</text>
<text xml:space="preserve" text-anchor="middle" x="281" y="-515.25" font-family="Menlo" font-size="10.00">2189 IntegerLessThanNode void [x=2271, y=566:long[1|0x1]]</text>
<text xml:space="preserve" text-anchor="middle" x="281" y="-502.5" font-family="Menlo" font-size="10.00">1297 AddNode i64 [x=1946, y=566:long[1|0x1]]</text>
<text xml:space="preserve" text-anchor="middle" x="281" y="-489.75" font-family="Menlo" font-size="10.00">2273 AddNode i64 [x=1946, y=2272:long[2|0x2]]</text>
<text xml:space="preserve" text-anchor="middle" x="281" y="-477" font-family="Menlo" font-size="10.00">2299 AddNode i64 [x=1945, y=2298:long[&#45;3|0xfffffffffffffffd]]</text>
<text xml:space="preserve" text-anchor="middle" x="281" y="-464.25" font-family="Menlo" font-size="10.00">2301 AddNode i64 [x=1946, y=2300:long[3|0x3]]</text>
<text xml:space="preserve" text-anchor="middle" x="281" y="-451.5" font-family="Menlo" font-size="10.00">734 IfNode void</text>
<text xml:space="preserve" text-anchor="middle" x="281" y="-438.75" font-family="Menlo" font-size="10.00">1945 ValuePhiNode i64 [values=2242, values=2299]</text>
<text xml:space="preserve" text-anchor="middle" x="281" y="-426" font-family="Menlo" font-size="10.00">1946 ValuePhiNode i64 [values=2244, values=2301]</text>
<text xml:space="preserve" text-anchor="middle" x="281" y="-413.25" font-family="Menlo" font-size="10.00">1947 ValuePhiNode i64 [0 &#45; 1] bits:0...0x [values=532:long[0|0x0], values=569]</text>
<text xml:space="preserve" text-anchor="middle" x="281" y="-400.5" font-family="Menlo" font-size="10.00">1948 ValuePhiNode i32 [0 &#45; 1] bits:0...0x [values=5:int[0|0x0], values=22:int[1|0x1]]</text>
</g>
<!-- B0&#45;&gt;B1 -->
<g id="edge1" class="edge">
<title>B0&#45;&gt;B1</title>
<path fill="none" stroke="black" d="M281,-641.14C281,-633.62 281,-625.45 281,-616.95"/>
<polygon fill="black" stroke="black" points="284.5,-617.14 281,-607.14 277.5,-617.14 284.5,-617.14"/>
</g>
<!-- B2 -->
<g id="node3" class="node">
<title>B2</title>
<polygon fill="#f4f5f7" stroke="black" points="180,-357.25 126,-357.25 126,-321.25 180,-321.25 180,-357.25"/>
<text xml:space="preserve" text-anchor="middle" x="153" y="-336.12" font-family="Menlo" font-size="10.00">B2</text>
</g>
<!-- B1&#45;&gt;B2 -->
<g id="edge2" class="edge">
<title>B1&#45;&gt;B2</title>
<path fill="none" stroke="black" d="M195.62,-392.86C187.8,-383.2 180.45,-374.14 174.14,-366.35"/>
<polygon fill="black" stroke="black" points="176.95,-364.26 167.94,-358.69 171.52,-368.67 176.95,-364.26"/>
</g>
<!-- B3 -->
<g id="node4" class="node">
<title>B3</title>
<polygon fill="#def4e9" stroke="black" points="337,-357.25 225,-357.25 225,-321.25 337,-321.25 337,-357.25"/>
<text xml:space="preserve" text-anchor="middle" x="281" y="-342.5" font-family="Menlo" font-size="10.00">B3</text>
<text xml:space="preserve" text-anchor="middle" x="281" y="-329.75" font-family="Menlo" font-size="10.00">2033 IfNode void</text>
</g>
<!-- B1&#45;&gt;B3 -->
<g id="edge3" class="edge">
<title>B1&#45;&gt;B3</title>
<path fill="none" stroke="black" d="M281,-392.86C281,-384.26 281,-376.14 281,-368.96"/>
<polygon fill="black" stroke="black" points="284.5,-369.03 281,-359.03 277.5,-369.03 284.5,-369.03"/>
</g>
<!-- B7 -->
<g id="node5" class="node">
<title>B7</title>
<polygon fill="#f4f5f7" stroke="black" points="385,-141.25 3,-141.25 3,-95 385,-95 385,-141.25"/>
<text xml:space="preserve" text-anchor="middle" x="194" y="-127.75" font-family="Menlo" font-size="10.00">B7</text>
<text xml:space="preserve" text-anchor="middle" x="194" y="-115" font-family="Menlo" font-size="10.00">1539 MergeNode void</text>
<text xml:space="preserve" text-anchor="middle" x="194" y="-102.25" font-family="Menlo" font-size="10.00">1541 ValuePhiNode i64 [values=1946, values=2273, values=1297]</text>
</g>
<!-- B2&#45;&gt;B7 -->
<g id="edge4" class="edge">
<title>B2&#45;&gt;B7</title>
<path fill="none" stroke="black" d="M152.88,-321.07C153.01,-303.06 153.93,-273.99 158,-249.25 163.53,-215.6 174.4,-178.18 182.76,-152.13"/>
<polygon fill="black" stroke="black" points="186.03,-153.4 185.81,-142.81 179.37,-151.22 186.03,-153.4"/>
</g>
<!-- B4 -->
<g id="node6" class="node">
<title>B4</title>
<polygon fill="#f4f5f7" stroke="black" points="221,-285.25 167,-285.25 167,-249.25 221,-249.25 221,-285.25"/>
<text xml:space="preserve" text-anchor="middle" x="194" y="-264.12" font-family="Menlo" font-size="10.00">B4</text>
</g>
<!-- B3&#45;&gt;B4 -->
<g id="edge5" class="edge">
<title>B3&#45;&gt;B4</title>
<path fill="none" stroke="black" d="M259.49,-320.95C248.93,-312.45 236.02,-302.06 224.47,-292.76"/>
<polygon fill="black" stroke="black" points="226.72,-290.09 216.74,-286.55 222.34,-295.54 226.72,-290.09"/>
</g>
<!-- B5 -->
<g id="node7" class="node">
<title>B5</title>
<polygon fill="#def4e9" stroke="black" points="351,-285.25 239,-285.25 239,-249.25 351,-249.25 351,-285.25"/>
<text xml:space="preserve" text-anchor="middle" x="295" y="-270.5" font-family="Menlo" font-size="10.00">B5</text>
<text xml:space="preserve" text-anchor="middle" x="295" y="-257.75" font-family="Menlo" font-size="10.00">2191 IfNode void</text>
</g>
<!-- B3&#45;&gt;B5 -->
<g id="edge6" class="edge">
<title>B3&#45;&gt;B5</title>
<path fill="none" stroke="black" d="M284.46,-320.95C285.94,-313.57 287.7,-304.77 289.35,-296.5"/>
<polygon fill="black" stroke="black" points="292.75,-297.33 291.28,-286.84 285.89,-295.96 292.75,-297.33"/>
</g>
<!-- B9 -->
<g id="node10" class="node">
<title>B9</title>
<polygon fill="#f4f5f7" stroke="black" points="388,-59 0,-59 0,0 388,0 388,-59"/>
<text xml:space="preserve" text-anchor="middle" x="194" y="-45.5" font-family="Menlo" font-size="10.00">B9</text>
<text xml:space="preserve" text-anchor="middle" x="194" y="-32.75" font-family="Menlo" font-size="10.00">1832 LoopExitNode void</text>
<text xml:space="preserve" text-anchor="middle" x="194" y="-20" font-family="Menlo" font-size="10.00">2293 BoxNode$AllocatingBoxNode a!# java.lang.Long [value=2241]</text>
<text xml:space="preserve" text-anchor="middle" x="194" y="-7.25" font-family="Menlo" font-size="10.00">1889 ReturnNode void [result=2293]</text>
</g>
<!-- B7&#45;&gt;B9 -->
<g id="edge11" class="edge">
<title>B7&#45;&gt;B9</title>
<path fill="none" stroke="black" d="M194,-94.82C194,-87.46 194,-79.03 194,-70.75"/>
<polygon fill="black" stroke="black" points="197.5,-70.79 194,-60.79 190.5,-70.79 197.5,-70.79"/>
</g>
<!-- B4&#45;&gt;B7 -->
<g id="edge7" class="edge">
<title>B4&#45;&gt;B7</title>
<path fill="none" stroke="black" d="M194,-248.8C194,-225.21 194,-182.68 194,-152.77"/>
<polygon fill="black" stroke="black" points="197.5,-153.11 194,-143.12 190.5,-153.12 197.5,-153.11"/>
</g>
<!-- B6 -->
<g id="node8" class="node">
<title>B6</title>
<polygon fill="#f4f5f7" stroke="black" points="283,-213.25 229,-213.25 229,-177.25 283,-177.25 283,-213.25"/>
<text xml:space="preserve" text-anchor="middle" x="256" y="-192.12" font-family="Menlo" font-size="10.00">B6</text>
</g>
<!-- B5&#45;&gt;B6 -->
<g id="edge8" class="edge">
<title>B5&#45;&gt;B6</title>
<path fill="none" stroke="black" d="M285.36,-248.95C281.06,-241.23 275.9,-231.96 271.11,-223.36"/>
<polygon fill="black" stroke="black" points="274.19,-221.71 266.27,-214.68 268.08,-225.12 274.19,-221.71"/>
</g>
<!-- B8 -->
<g id="node9" class="node">
<title>B8</title>
<polygon fill="#def4e9" stroke="black" points="446,-213.25 304,-213.25 304,-177.25 446,-177.25 446,-213.25"/>
<text xml:space="preserve" text-anchor="middle" x="375" y="-198.5" font-family="Menlo" font-size="10.00">B8</text>
<text xml:space="preserve" text-anchor="middle" x="375" y="-185.75" font-family="Menlo" font-size="10.00">1835 LoopEndNode void</text>
</g>
<!-- B5&#45;&gt;B8 -->
<g id="edge9" class="edge">
<title>B5&#45;&gt;B8</title>
<path fill="none" stroke="black" d="M314.78,-248.95C324.39,-240.53 336.12,-230.27 346.67,-221.04"/>
<polygon fill="black" stroke="black" points="348.81,-223.81 354.04,-214.59 344.21,-218.54 348.81,-223.81"/>
</g>
<!-- B6&#45;&gt;B7 -->
<g id="edge10" class="edge">
<title>B6&#45;&gt;B7</title>
<path fill="none" stroke="black" d="M241.62,-176.83C235.13,-168.96 227.25,-159.42 219.79,-150.38"/>
<polygon fill="black" stroke="black" points="222.57,-148.24 213.5,-142.76 217.17,-152.7 222.57,-148.24"/>
</g>
<!-- B8&#45;&gt;B1 -->
<g id="edge12" class="edge">
<title>B8&#45;&gt;B1</title>
<path fill="none" stroke="black" d="M372.2,-213.67C369.28,-231.63 364.5,-260.43 360,-285.25 354.18,-317.33 356.01,-326.22 346,-357.25 343.32,-365.55 340.29,-374 337.02,-382.43"/>
<polygon fill="black" stroke="black" points="333.78,-381.1 333.33,-391.69 340.29,-383.69 333.78,-381.1"/>
</g>
</g>
</svg>
